<svg id="Layer_1" data-name="Layer 1" xmlns="http://www.w3.org/2000/svg" viewBox="0 0 180.56 194.22"><defs><style>.cls-1{fill:#fff;}.cls-2{fill:#747474;}.cls-3{fill:#4285f4;}.cls-4{fill:#ea4335;}.cls-5{fill:#ffba01;}.cls-6{fill:#34a853;}</style></defs><title>Logo</title><polygon class="cls-1" points="6.75 70.9 88.93 8.81 173.71 68.81 174.75 188.29 6.75 188.29 6.75 70.9"/><path class="cls-2" d="M89.81,194.14c-28.36,0-56.72-.07-85.08.08-3.67,0-4.58-1.11-4.56-4.65C.28,150.3.48,111,0,71.77c-.08-6.46,4.08-8.49,7.53-11.43,4.8-4.09,10.55-7.1,15.31-11.24,5-4.37,10.65-7.79,15.86-11.84,9.6-7.45,19.47-14.56,29.22-21.84C74,10.87,80.08,6.27,86.15,1.68c2.73-2.07,5.07-2.43,8.11.07,7.15,5.87,14.64,11.32,22,16.9s15,11.48,22.58,17.06c5.19,3.82,10.36,7.73,15.77,11.28,7.43,4.87,13.92,11,21.47,15.79,3.09,1.94,4.46,5.2,4.45,9.16q-.13,58.16-.06,116.31c0,4.74-1.18,5.88-6,5.89Zm-.39-11.41q34.86,0,69.7,0c1.49,0,3-.25,4.47-.24,3.56,0,4.49-1.73,4.48-5.15q-.16-49.92,0-99.82a8.27,8.27,0,0,0-3.71-7.22q-16.36-12-32.67-24C118.73,36.63,105.8,27,93,17.22a4.54,4.54,0,0,0-6.06,0c-10.9,8-21.8,16-32.52,24.27C41.92,51.07,29,60.09,16.52,69.7c-3.15,2.42-4.24,4.6-4.23,8.24q.11,49,0,97.95c0,1.13.06,2.25,0,3.37a2.65,2.65,0,0,0,2.56,3.06,34.86,34.86,0,0,0,4.45.39Q54.39,182.74,89.42,182.73Z" transform="translate(0)"/><path class="cls-3" d="M126,123.63c6.49,0,13,0,19.46,0,3,0,4.53,1,4.48,4.38-.16,10.57,0,21.15-.07,31.72,0,4.24-.73,4.95-5.06,5-12.72,0-25.44-.07-38.16.07-3.06,0-4.59-1.3-4.61-4.05-.08-11.19,0-22.38,0-33.58,0-2.75,1.52-3.55,4.1-3.52C112.79,123.7,119.4,123.63,126,123.63Z" transform="translate(0)"/><path class="cls-4" d="M77.07,76.33c0,7.22-.06,14.45,0,21.67,0,3.14-1.14,4.43-4.43,4.39-13.11-.13-26.22-.11-39.33,0-3,0-4.43-.85-4.27-4a78.28,78.28,0,0,0,0-10.83c-.27-3.11,1.42-5,3.53-6.44C41.65,75,49.93,67.82,58.82,61.49c4.93-3.5,9.68-7.26,14.51-10.91a1.86,1.86,0,0,1,2.1-.16c1.44.72,1.64,2,1.64,3.48,0,7.48,0,14.95,0,22.43Z" transform="translate(0)"/><path class="cls-5" d="M54.1,123.43c6.48,0,13,0,19.45,0,3,0,4.53,1,4.48,4.37-.15,10.58,0,21.15-.07,31.73,0,4.24-.73,4.95-5.06,5-12.72,0-25.44-.07-38.16.07-3.06,0-4.59-1.3-4.61-4.05-.08-11.2,0-22.39,0-33.58,0-2.75,1.53-3.56,4.1-3.52C40.88,123.5,47.49,123.44,54.1,123.43Z" transform="translate(0)"/><path class="cls-6" d="M102.13,76.55c0,7.23.06,14.46,0,21.68,0,3.13,1.14,4.43,4.43,4.39,13.11-.13,26.22-.11,39.33,0,3,0,4.43-.85,4.27-4a81.54,81.54,0,0,1,0-10.83c.27-3.12-1.42-5-3.52-6.44-9.07-6.11-17.35-13.25-26.24-19.58-4.93-3.51-9.68-7.26-14.5-10.91a1.86,1.86,0,0,0-2.1-.16c-1.45.72-1.65,2-1.64,3.48q0,11.21,0,22.42Z" transform="translate(0)"/></svg>